<svg width="580" height="360" fill="none" xmlns="http://www.w3.org/2000/svg"><g clip-path="url(#keep_clip0_1493_15400)"><path d="M167.172 90.793 173.739 87m249.722 112.754v-20.752m-270.003 14.323V156.5m270.003-28.998v-12.958a27.428 27.428 0 0 0-13.714-23.752L302.173 28.678a27.425 27.425 0 0 0-27.427 0l-24.747 14.289m-66 38.11 12.5-7.218m9.279-5.358 36.721-21.204m128.641 237.96-36.721 21.203m-7.5 4.331-24.746 14.289a27.429 27.429 0 0 1-27.428 0L196.5 279.899" stroke="#3C4249" stroke-width="2" stroke-linecap="round"/><path d="m214.781 276.011 63.393 36.604a20.567 20.567 0 0 0 20.571 0l63.393-36.604m-196.822-97.684v-8.142m246.287-48.858v-4.209a20.577 20.577 0 0 0-10.285-17.815l-62.795-36.258m-7.174-4.143-6.186-3.571m-5.814-3.357-20.604-11.897a20.57 20.57 0 0 0-20.571 0L185 93.877m-19.684 63.165v8.429" stroke="#C4C8CF" stroke-width="2" stroke-linecap="round" stroke-linejoin="round"/><path d="M428.075 242.992a4.853 4.853 0 0 0-3.429-2.573s-4.082.117-3.428-.857c1.297-1.937 1.714-14.571 1.714-14.571l13.714-.001 16.285 31.713v2.573h-16.285s-7.539-14.078-8.571-16.284zm12.862 64.057-91.002.001 25.001-14.001h38.501l2-3-10-18h-17.001l-22-15h49.001l2 2 23.5 48zm-292.074-65.105a4.859 4.859 0 0 1 3.429-2.572s4.081.116 3.428-.857c-1.297-1.937-1.714-14.571-1.714-14.571l-13.714-.001-16.284 31.713-.001 2.573h16.285s7.539-14.079 8.571-16.285zM136 306.001h91l-25-14h-38.5l-2-3 10-18h17l22-15h-49l-2 2-23.5 48z" fill="#391919"/><path d="m368.08 256.704 28.103-.001m44.52 49.512-3.789-7.71m-34.694-41.802 11.288-.001c1.634 0 3.462.529 4.287 2.573.403.998 5.871 12.207 11.363 23.42m4.538 9.256-1.891-3.856m-15.726-31.391 10.283-15.428m5.748 80.152L442.393 306m-5.398-80.778-14.057-.228m29.999 34.282-16.29.003m-74.712-2.572-12.856.001" stroke="#DE5846" stroke-width="2" stroke-linecap="round"/><path d="m426.437 307.049 12.5-.001c.658-.035 1.91-.205 2.5-.5.589-.294.792-.483 1.215-.989.173-.247 3.338-4.967 7.524-11.222m-56.664-22.204 10.57-.001c1.819.001 2.728 1.297 3.429 2.572.371.676 3.876 8.022 7.441 15.305.821 1.679-1.016 3.04-2.016 3.04h-46.501m94.626-15.001c-2.61 3.911-5.396 8.081-7.99 11.961m-8.88-75.467 1.12-1.699m-3.322 5.042c-1.683 2.552-3.238 4.892-3.624 5.391-.895 1.156-1.162 1.872-.856 2.572.306.701 14.75 29.031 15.427 30.856.678 1.826.694 3.21 0 4.286-.693 1.075-5.764 8.851-6.857 10.285a1.994 1.994 0 0 1-3.428 0c-.632-1.149-12.442-24.859-13.714-27.428a5.604 5.604 0 0 0-5.145-3.426l-41.922.001m87.577 25.021a3200.832 3200.832 0 0 1-5.204 7.831m-121.45-32.852h20.649m25.78 31.715h-4.285m45.5 34.911-85.001.001" stroke="#DE5846" stroke-width="2" stroke-linecap="round"/><path d="m422.942 203.744-.001 25.649a27.394 27.394 0 0 1-2.233 10.84m-9.625-55.064v14.817l-.001 26.834c0 4.894-1.744 9.627-4.92 13.35m-197.307 15.485h-28.101m-44.52 49.512s1.525-3.101 3.788-7.709m34.695-41.803h-11.289c-1.633 0-3.461.528-4.286 2.572-.403.998-5.871 12.207-11.364 23.42m-4.538 9.256 1.892-3.856m15.727-31.39-10.284-15.428m-10.633-16.054 14.056-.229m-29.997 34.283 16.289.003m74.71-2.573h12.856" stroke="#DE5846" stroke-width="2" stroke-linecap="round"/><path d="M150.5 306.001H138c-.658-.036-1.91-.206-2.5-.5-.589-.295-.792-.484-1.215-.989-.173-.247-3.338-4.967-7.524-11.223m56.664-22.204-10.57-.001c-1.819.002-2.728 1.297-3.429 2.572-.371.676-3.876 8.022-7.441 15.305-.822 1.679 1.015 3.04 2.015 3.04h46.5M115.877 277c2.609 3.912 5.395 8.081 7.989 11.961m8.881-75.466-1.12-1.699m3.322 5.042c1.683 2.552 3.237 4.892 3.623 5.39.896 1.157 1.163 1.873.857 2.573-.307.7-14.75 29.03-15.428 30.856-.678 1.825-.693 3.21 0 4.285.694 1.076 5.764 8.851 6.857 10.285a1.998 1.998 0 0 0 2.701.715c.3-.171.551-.418.728-.715.631-1.149 12.442-24.859 13.713-27.427a5.605 5.605 0 0 1 5.145-3.427l41.921.001m-87.575 25.022c1.336 2.019 3.147 4.745 5.203 7.831m121.449-32.853h-20.649m-25.78 31.714H192m-45.5 34.913h85" stroke="#DE5846" stroke-width="2" stroke-linecap="round"/><path d="M153.997 202.697v25.649a27.398 27.398 0 0 0 2.233 10.84m9.625-55.064v14.817l.001 26.834a20.563 20.563 0 0 0 4.92 13.35m38.079 16.532h-28.101m-44.52 49.512s1.525-3.101 3.788-7.709m34.695-41.803h-11.289c-1.633 0-3.461.528-4.286 2.572-.403.998-5.871 12.207-11.364 23.42m-4.538 9.256 1.892-3.856m15.726-31.39-10.283-15.428m-6.182 79.199L134.11 304m5.832-79.825 14.056-.229m-29.997 34.283 16.289.003" stroke="#DE5846" stroke-width="2" stroke-linecap="round"/><path d="M150.5 306.001H138c-.658-.036-1.91-.206-2.5-.5-.59-.295-.792-.484-1.216-.989a4111.18 4111.18 0 0 1-7.523-11.223m56.663-22.204-10.569-.001c-1.819.002-2.728 1.297-3.429 2.572-.372.676-3.877 8.022-7.441 15.305-.822 1.679 1.015 3.04 2.015 3.04h46.5M115.877 277c2.609 3.912 5.395 8.081 7.989 11.961m8.881-75.466-1.12-1.699m3.322 5.042c1.683 2.552 3.237 4.892 3.623 5.39.895 1.157 1.163 1.873.856 2.573-.306.7-14.749 29.03-15.427 30.856-.678 1.825-.693 3.21 0 4.285.694 1.076 5.764 8.851 6.857 10.285a1.994 1.994 0 0 0 3.428 0c.632-1.149 12.442-24.859 13.714-27.427a5.614 5.614 0 0 1 5.145-3.427l41.921.001m-87.575 25.022c1.335 2.019 3.147 4.745 5.203 7.831m121.449-32.853h-20.649m-25.78 31.714h4.285M146.5 306.001h85" stroke="#DE5846" stroke-width="2" stroke-linecap="round"/><path d="m153.996 202.697.001 25.649a27.398 27.398 0 0 0 2.233 10.84m9.625-55.064v41.651c0 4.894 1.745 9.627 4.92 13.35" stroke="#DE5846" stroke-width="2" stroke-linecap="round"/><path d="m288.566 152.613-91.076 93.503 91.076-144.612 91.277 144.612-91.277-93.503zm-42.341 64.581 15.378-16.047h54.127l15.379 16.047h-84.884zm26.763-27.536 15.779-16.244 15.778 16.242-31.557.002z" fill="#DE5846" stroke="#881A1B" stroke-width="2" stroke-linecap="round" stroke-linejoin="round"/><path d="M516 100v-7.122c0-3.222-.859-6.387-2.493-9.18a18.597 18.597 0 0 0-6.816-6.743l-8.191-4.69M516 104.5v2.5m0 5.5v5.622c0 3.222-.859 6.387-2.493 9.181a18.597 18.597 0 0 1-6.816 6.742l-21.732 12.443a19.032 19.032 0 0 1-9.458 2.512c-3.324 0-6.588-.867-9.458-2.512l-21.732-12.443a18.603 18.603 0 0 1-6.818-6.742 18.185 18.185 0 0 1-2.493-9.181V92.878c0-3.222.86-6.387 2.493-9.181a18.607 18.607 0 0 1 6.818-6.742l21.732-12.443A19.026 19.026 0 0 1 475.501 62c3.323 0 6.587.867 9.458 2.512l8.711 4.988" stroke="#3C4249" stroke-width="2" stroke-linecap="round"/><path d="M473.771 101.761c0-4.418 3.744-6.253 8.171-6.253 5.125 0 8.17 2.245 8.403 7.04h-4.077c-.182-2.766-1.78-3.734-4.409-3.734-2.064 0-4.044.737-4.044 2.816 0 2.209 2.263 2.782 5.241 3.584 5.059 1.344 8.054 2.946 8.054 7.103 0 4.828-4.143 6.874-8.553 6.874-5.84 0-9.404-3.157-9.537-8.263h4.076c.167 3.159 2.217 4.957 5.428 4.957 2.713 0 4.543-1.277 4.543-3.388 0-2.521-2.629-3.045-5.941-3.944a38.747 38.747 0 0 1-1.626-.489m5.224 23.313-7.19 4.086a4.117 4.117 0 0 1-4.069 0l.004-.004s-6.305-3.49-7.244-4.082c-.939-.592-.53-1.359 0-1.675.88-.497 1.786-.944 2.716-1.342a1.693 1.693 0 0 1 1.418.208l3.125 1.777a4.114 4.114 0 0 0 4.069 0l17.922-10.185a4.04 4.04 0 0 0 1.494-1.471 4 4 0 0 0 .548-2.014V96.322a4 4 0 0 0-.548-2.015 4.044 4.044 0 0 0-1.494-1.471l-5.13-2.915M487.5 129.8l7.566-4.3m2.446-1.39 2.446-1.39a4.047 4.047 0 0 0 1.494-1.471 4 4 0 0 0 .548-2.014v-25.47a4.001 4.001 0 0 0-.548-2.014 4.046 4.046 0 0 0-1.494-1.472l-22.424-12.742a4.12 4.12 0 0 0-4.069 0l-22.423 12.742c-.62.352-1.136.86-1.494 1.472a3.981 3.981 0 0 0-.548 2.015v25.469c0 .707.189 1.402.548 2.014a4.04 4.04 0 0 0 1.494 1.471s2.151 1.273 5.167 2.936c6.313 3.482 12.73.772 12.73-5.674V96.518a.953.953 0 0 0-.279-.731.968.968 0 0 0-.74-.274h-2.377a.918.918 0 0 0-.758.255.89.89 0 0 0-.26.75v22.459c0 3.351-2.218 5.017-5.5 3.152l-3.463-1.968a4.05 4.05 0 0 1-1.494-1.472 3.997 3.997 0 0 1-.548-2.014V111.5m33.98-23.196-3.703-2.104m-2.671-1.518-3.573-2.03a4.12 4.12 0 0 0-4.069 0l-17.922 10.184c-.62.352-1.135.86-1.494 1.471a4 4 0 0 0-.548 2.015v4.178m0 7.5v-3.75m22.98 2.465c-1.178-.755-2.099-1.767-2.504-3.215" stroke="#3C4249" stroke-width="2" stroke-linecap="round" stroke-linejoin="round"/><path d="M360.897 32.002a13.73 13.73 0 0 0-5.05 4.959A13.306 13.306 0 0 0 354 43.715V52m47 25.47 6.104-3.471a13.733 13.733 0 0 0 5.05-4.96A13.314 13.314 0 0 0 414 62.285v-18.57c0-2.37-.637-4.699-1.846-6.754a13.732 13.732 0 0 0-5.05-4.96l-16.097-9.153A14.176 14.176 0 0 0 384.001 21c-2.462 0-4.88.638-7.006 1.848l-4.664 2.652m-7.831 4.453 5-2.843" stroke="#DE5846" stroke-width="2" stroke-linecap="round"/><path d="M379 62.5h16.098a1.869 1.869 0 0 0 1.863-1.864V41.855A1.86 1.86 0 0 0 395.107 40h-22.244A1.869 1.869 0 0 0 371 41.864V56m25.961-10.808H371" stroke="#3C4249" stroke-width="2" stroke-linecap="round" stroke-linejoin="round"/><path d="m389.173 50.385 3.461 3.461-3.461 3.462" stroke="#DE5846" stroke-width="2" stroke-linecap="round" stroke-linejoin="round"/><path d="m378.788 50.385-3.461 3.461 3.461 3.462m6.923-6.923-3.461 6.923" stroke="#3C4249" stroke-width="2" stroke-linecap="round" stroke-linejoin="round"/><path d="M428 162.06c0 2.185-.584 4.331-1.693 6.226a12.629 12.629 0 0 1-4.628 4.572l-14.756 8.439a12.94 12.94 0 0 1-6.422 1.703c-2.257 0-4.473-.588-6.423-1.703l-14.756-8.439a12.617 12.617 0 0 1-4.629-4.572A12.318 12.318 0 0 1 373 162.06v-17.12c0-2.185.584-4.331 1.693-6.226a12.617 12.617 0 0 1 4.629-4.572l14.756-8.439a12.944 12.944 0 0 1 6.423-1.703c2.256 0 4.473.588 6.422 1.703l14.756 8.439a12.629 12.629 0 0 1 4.628 4.572A12.321 12.321 0 0 1 428 144.94v17.12z" stroke="#3C4249" stroke-width="2" stroke-linecap="round"/><path d="M402.894 138h.93c.515 0 .931.4.931.894v6.255m-1.861 0h3.723m7.447-1.787c0 .987-.834 1.787-1.862 1.787s-1.862-.8-1.862-1.787v-3.575c0-.987.834-1.787 1.862-1.787s1.862.8 1.862 1.787v3.575z" stroke="#DE5846" stroke-width="2" stroke-linecap="round" stroke-linejoin="round"/><path d="M387.999 138h.931c.514 0 .931.4.931.894v6.255m-1.862 0h3.723M387.999 162h.931c.514 0 .931.4.931.894v6.255m-1.862 0h3.723m3.83-19.149h.931c.514 0 .931.4.931.894v6.255m-1.862 0h3.724M410.552 150h.931c.514 0 .931.4.931.894v6.255m-1.862 0h3.724M402.893 162h.93c.515 0 .931.4.931.894v6.255m-1.861 0h3.723m-7.447-25.787c0 .987-.833 1.787-1.861 1.787-1.029 0-1.862-.8-1.862-1.787v-3.575c0-.987.833-1.787 1.862-1.787 1.028 0 1.861.8 1.861 1.787v3.575zm0 24c0 .987-.833 1.787-1.861 1.787-1.029 0-1.862-.8-1.862-1.787v-3.575c0-.987.833-1.787 1.862-1.787 1.028 0 1.861.8 1.861 1.787v3.575zm-7.447-12c0 .987-.833 1.787-1.861 1.787s-1.862-.8-1.862-1.787v-3.575c0-.987.834-1.787 1.862-1.787s1.861.8 1.861 1.787v3.575zm15 0c0 .987-.833 1.787-1.861 1.787s-1.862-.8-1.862-1.787v-3.575c0-.987.834-1.787 1.862-1.787s1.861.8 1.861 1.787v3.575zm7.341 12c0 .987-.834 1.787-1.862 1.787s-1.862-.8-1.862-1.787v-3.575c0-.987.834-1.787 1.862-1.787s1.862.8 1.862 1.787v3.575z" stroke="#3C4249" stroke-width="2" stroke-linecap="round" stroke-linejoin="round"/><path d="M179.923 101.703a12.94 12.94 0 0 0-6.422-1.703c-2.257 0-4.473.588-6.423 1.703l-14.756 8.439a12.617 12.617 0 0 0-4.629 4.572A12.321 12.321 0 0 0 146 120.94v2.56m55-2.56c0-2.185-.584-4.331-1.693-6.226a12.629 12.629 0 0 0-4.628-4.572L192.682 109M189 106.894 185.687 105" stroke="#3C4249" stroke-width="2" stroke-linecap="round"/><path d="M201 129.5v8.56c0 2.185-.584 4.331-1.693 6.226a12.629 12.629 0 0 1-4.628 4.572l-14.756 8.439a12.94 12.94 0 0 1-6.422 1.703c-2.257 0-4.473-.588-6.423-1.703l-14.756-8.439a12.617 12.617 0 0 1-4.629-4.572A12.318 12.318 0 0 1 146 138.06V128" stroke="#C4C8CF" stroke-width="2" stroke-linecap="round"/><path clip-rule="evenodd" d="M173 133.45a4.1 4.1 0 1 0-.001-8.201 4.1 4.1 0 0 0 .001 8.201zm-6.151 10.25a6.15 6.15 0 0 1 12.301 0h-12.301z" stroke="#C4C8CF" stroke-width="2" stroke-linecap="round" stroke-linejoin="round"/><path d="M166.476 135.873a9.227 9.227 0 0 1 0-13.047 9.225 9.225 0 1 1 13.047 13.047" stroke="#3C4249" stroke-width="2" stroke-linecap="round" stroke-linejoin="round"/><path d="M162.852 139.497c-5.604-5.604-5.604-14.69.001-20.294 5.604-5.604 14.69-5.604 20.294 0 5.604 5.604 5.604 14.69 0 20.294" stroke="#3C4249" stroke-width="2" stroke-linecap="round" stroke-linejoin="round"/><path d="M92.068 200.979v-19.157c0-1.947-.09-4.024 2.915-5.83s17.492-9.995 17.492-9.995a7.062 7.062 0 0 1 .832 3.331v15.409c0 3.787-1.082 5.474-2.915 6.664-1.833 1.19-12.851 7.678-14.993 8.743-2.141 1.066-3.331.835-3.331.835z" fill="#391919"/><path d="M86.127 155.362a1 1 0 0 0 .999 1.733l-.999-1.733zm2.826-.473-.5-.867.5.867zm3.325-.889v-1 1zm3.325.889-.5.866v.001l.5-.867zm14.588 8.4.499-.867-.499.867zm3.339 5.774h1-1zm0 16.768h-1 1zm-3.339 5.774-.499-.866.499.866zm-14.589 8.401.499.866-.499-.866zm-3.325.889v-1 1zm-3.325-.889.5-.867-.5.867zm-14.588-8.4-.5.867.5-.867zm-3.339-5.774h-1 1zm0-16.768h-1 1zm3.339-5.774-.5-.867.5.867zm9.287-4.194a1 1 0 1 0-.998-1.733l.998 1.733zm3.475-2.001 2.326-1.34-.998-1.733-2.327 1.34.999 1.733zm2.326-1.34a5.672 5.672 0 0 1 2.826-.755v-2a7.67 7.67 0 0 0-3.824 1.022l.998 1.733zm2.826-.755c.991 0 1.966.261 2.826.755l.998-1.733A7.67 7.67 0 0 0 92.278 153v2zm2.826.756 14.588 8.399.998-1.733-14.588-8.4-.998 1.734zm14.588 8.399a5.66 5.66 0 0 1 2.077 2.074l1.732-1.001a7.673 7.673 0 0 0-2.811-2.806l-.998 1.733zm2.077 2.074c.498.861.761 1.839.761 2.834h2a7.669 7.669 0 0 0-1.029-3.835l-1.732 1.001zm.761 2.834v16.768h2v-16.768h-2zm0 16.768c0 .995-.263 1.973-.761 2.835l1.732 1.001a7.665 7.665 0 0 0 1.029-3.836h-2zm-.761 2.835a5.665 5.665 0 0 1-2.077 2.073l.998 1.733a7.67 7.67 0 0 0 2.811-2.805l-1.732-1.001zm-2.077 2.073-14.589 8.4.998 1.733 14.589-8.4-.998-1.733zm-14.589 8.4a5.663 5.663 0 0 1-2.826.756v2c1.342 0 2.66-.353 3.824-1.023l-.998-1.733zm-2.826.756a5.663 5.663 0 0 1-2.826-.756l-.998 1.733a7.661 7.661 0 0 0 3.824 1.023v-2zm-2.826-.756-14.588-8.4-.998 1.734 14.588 8.399.998-1.733zm-14.588-8.4a5.655 5.655 0 0 1-2.077-2.073l-1.732 1.001a7.665 7.665 0 0 0 2.81 2.806l.999-1.734zm-2.077-2.073a5.662 5.662 0 0 1-.76-2.834h-2c0 1.346.354 2.669 1.028 3.835l1.732-1.001zm-.76-2.834v-16.768h-2v16.768h2zm0-16.768c0-.995.261-1.973.76-2.834l-1.732-1.001a7.665 7.665 0 0 0-1.029 3.835h2zm.76-2.834a5.655 5.655 0 0 1 2.077-2.073l-.998-1.734a7.664 7.664 0 0 0-2.81 2.806l1.73 1.001zm2.077-2.073 8.788-5.061-.998-1.733-8.788 5.06.998 1.734z" fill="#DE5846"/><path d="M91.265 200.368a1 1 0 1 0 2 0h-2zm2-2.862a1 1 0 0 0-2 0h2zm-2-3.773a1 1 0 0 0 2 0h-2zm2-4.85a1 1 0 1 0-2 0h2zm-2-5.265a1 1 0 0 0 2 0h-2zm1-3.023h-1 1zm2.504-4.33.499.866.003-.001-.502-.865zm18.208-9.405a1 1 0 1 0-1.004-1.73l1.004 1.73zm-19.712 33.508v-2.862h-2v2.862h2zm-2-11.485v4.85h2v-4.85h-2zm2-5.265v-3.023h-2v3.023h2zm0-3.023c0-.702.185-1.392.537-2l-1.732-1.001a5.993 5.993 0 0 0-.805 3.001h2zm.537-2a3.996 3.996 0 0 1 1.466-1.464l-.998-1.733a5.995 5.995 0 0 0-2.2 2.196l1.732 1.001zm1.469-1.465 17.706-10.27-1.004-1.73-17.706 10.27 1.004 1.73z" fill="#DE5846"/><path d="M147 115.5 117 98" stroke="#3C4249" stroke-width="2" stroke-linecap="round"/><path d="m113 95.5-9-5.5M79 72.5 70 67" stroke="#DE5846" stroke-width="2" stroke-linecap="round"/><path d="m119.5 95-14-8.5" stroke="#DE5846" stroke-width="2" stroke-linecap="round" stroke-dasharray="4 4"/><path d="M51 164.523c0-3.185.86-6.314 2.493-9.075a18.502 18.502 0 0 1 6.818-6.665l21.732-12.3A19.203 19.203 0 0 1 91.5 134c3.323 0 6.587.857 9.458 2.483M50.999 184v5.477c0 3.185.86 6.314 2.494 9.076a18.507 18.507 0 0 0 6.818 6.664l10.189 5.767M51 179v-10m57.939-28 5.561 3.147 8.191 4.636a18.493 18.493 0 0 1 6.816 6.665 17.81 17.81 0 0 1 2.493 9.075v24.954a17.81 17.81 0 0 1-2.493 9.075 18.493 18.493 0 0 1-6.816 6.665l-21.732 12.3A19.202 19.202 0 0 1 91.501 220c-3.324 0-6.588-.857-9.458-2.483l-3.564-2.017m51.293-60.5 16.728-12m-14.728 15 6.984-5.028" stroke="#C4C8CF" stroke-width="2" stroke-linecap="round"/><path d="M491 179.062a5.703 5.703 0 0 1-.831 2.955 6.105 6.105 0 0 1-2.272 2.17l-7.244 4.005a6.525 6.525 0 0 1-3.153.808 6.525 6.525 0 0 1-3.153-.808l-7.243-4.005a6.108 6.108 0 0 1-2.273-2.17 5.694 5.694 0 0 1-.831-2.955v-8.124c0-1.037.286-2.056.831-2.955a6.108 6.108 0 0 1 2.273-2.17l7.243-4.005A6.525 6.525 0 0 1 477.5 161c1.108 0 2.196.279 3.153.808l7.244 4.005a6.105 6.105 0 0 1 2.272 2.17c.544.899.831 1.918.831 2.955v8.124z" fill="#637282" stroke="#3C4249" stroke-width="2" stroke-linecap="round"/><path d="M105 85.062a5.703 5.703 0 0 1-.831 2.955 6.1 6.1 0 0 1-2.272 2.17l-7.244 4.005A6.52 6.52 0 0 1 91.5 95a6.52 6.52 0 0 1-3.153-.808l-7.243-4.005a6.102 6.102 0 0 1-2.273-2.17A5.698 5.698 0 0 1 78 85.062v-8.124c0-1.037.286-2.056.83-2.955a6.102 6.102 0 0 1 2.274-2.17l7.243-4.005A6.52 6.52 0 0 1 91.5 67a6.52 6.52 0 0 1 3.153.808l7.244 4.005a6.1 6.1 0 0 1 2.272 2.17c.544.9.831 1.918.831 2.955v8.124z" fill="#DE5846" stroke="#DE5846" stroke-width="2" stroke-linecap="round"/><path d="M477.5 161v-12m-41-64L425 78" stroke="#3C4249" stroke-width="2" stroke-linecap="round"/><path d="m421 75.5-9-5.5" stroke="#DE5846" stroke-width="2" stroke-linecap="round"/><path d="M427.5 75 414 67" stroke="#DE5846" stroke-width="2" stroke-linecap="round" stroke-dasharray="4 4"/><path d="M455.11 198.428 465.393 183M426 138l12.5-9M428 141l6.983-5.028" stroke="#3C4249" stroke-width="2" stroke-linecap="round"/><path d="M511.525 74.993h2.21v-7.736h7.735v-2.21h-7.735v-7.735h-2.21v7.735h-7.736v2.21h7.736v7.736zm24.311-24.312h2.211v-7.735h7.735v-2.21h-7.735V33h-2.211v7.736h-7.735v2.21h7.735v7.735zm0 24.312h2.211v-7.736h7.735v-2.21h-7.735v-7.735h-2.211v7.735h-7.735v2.21h7.735v7.736zm0 24.311h2.211V91.57h7.735v-2.21h-7.735v-7.736h-2.211v7.736h-7.735v2.21h7.735v7.735zm24.312-24.311h2.21v-7.736h7.736v-2.21h-7.736v-7.735h-2.21v7.735h-7.736v2.21h7.736v7.736zM95.25 263.885h-2v-7h-7v-2h7v-7h2v7h7v2h-7v7zm0 22h-2v-7h-7v-2h7v-7h2v7h7v2h-7v7zm22-44h-2v-7h-7v-2h7v-7h2v7h7v2h-7v7zm-44 22h-2v-7h-7v-2h7v-7h2v7h7v2h-7v7zm0 22h-2v-7h-7v-2h7v-7h2v7h7v2h-7v7zm22-44h-2v-7h-7v-2h7v-7h2v7h7v2h-7v7zm-44 22h-2v-7h-7v-2h7v-7h2v7h7v2h-7v7zm287.999-137h2v-7h7v-2h-7v-7h-2v7h-7v2h7v7zm135.001 156h2v-7h7v-2h-7v-7h-2v7h-7v2h7v7zm0-22h2v-7h7v-2h-7v-7h-2v7h-7v2h7v7zm0 44h2v-7h7v-2h-7v-7h-2v7h-7v2h7v7zm-113.001-200h2v-7h7v-2h-7v-7h-2v7h-7v2h7v7zm135.001 178h2v-7h7v-2h-7v-7h-2v7h-7v2h7v7zm0-22h2v-7h7v-2h-7v-7h-2v7h-7v2h7v7zm0-21h2v-7h7v-2h-7v-7h-2v7h-7v2h7v7zm-135.001-113h2v-7h7v-2h-7v-7h-2v7h-7v2h7v7zm0 22h2v-7h7v-2h-7v-7h-2v7h-7v2h7v7zm157.001 134h2v-7h7v-2h-7v-7h-2v7h-7v2h7v7zm-135.001-156h2v-7h7v-2h-7v-7h-2v7h-7v2h7v7zM51 226h-2v7h-7v2h7v7h2v-7h7v-2h-7v-7zm0-22h-2v7h-7v2h7v7h2v-7h7v-2h-7v-7zm-22 22h-2v7h-7v2h7v7h2v-7h7v-2h-7v-7zm44 0h-2v7h-7v2h7v7h2v-7h7v-2h-7v-7z" fill="#3C4249"/><path d="M29 204h-2v7h-7v2h7v7h2v-7h7v-2h-7v-7z" fill="#DE5846"/><path d="M93 75h-2v5h-5v2h5v5h2v-5h5v-2h-5v-5z" fill="#fff"/><path d="M498 289h-2v7h-7v2h7v7h2v-7h7v-2h-7v-7z" fill="#DE5846"/><path d="M211.25 348.885h-2v-7h-7v-2h7v-7h2v7h7v2h-7v7zm22-22h-2v-7h-7v-2h7v-7h2v7h7v2h-7v7zM189 311h-2v7h-7v2h7v7h2v-7h7v-2h-7v-7zm-22 0h-2v7h-7v2h7v7h2v-7h7v-2h-7v-7zm44 0h-2v7h-7v2h7v7h2v-7h7v-2h-7v-7z" fill="#3C4249"/></g><defs><clipPath id="keep_clip0_1493_15400"><path fill="#fff" d="M0 0h580v360H0z"/></clipPath></defs></svg>